<svg width="87" height="433" viewBox="0 0 87 433" fill="none" xmlns="http://www.w3.org/2000/svg">
<path d="M19.6415 42.8222C25.02 55.7153 39.8321 61.807 52.7251 56.4285C65.6182 51.05 71.7099 36.238 66.3314 23.3449C60.9529 10.4518 46.1409 4.36014 33.2478 9.73865C20.3548 15.1172 14.263 29.9292 19.6415 42.8222Z" fill="#E08E45"/>
<path d="M86.0239 308.862C86.0239 285.113 66.761 265.85 43.0119 265.85C19.2628 265.85 -5.34058e-05 285.113 -5.34058e-05 308.862C-5.34058e-05 332.611 19.2628 351.874 43.0119 351.874C66.761 351.874 86.0239 332.611 86.0239 308.862ZM22.4818 308.862C22.4818 297.532 31.657 288.357 42.9866 288.357C54.3162 288.357 63.4914 297.532 63.4914 308.862C63.4914 320.191 54.3162 329.367 42.9866 329.367C31.657 329.367 22.4818 320.191 22.4818 308.862Z" fill="#E08E45"/>
<path d="M67.9773 407.863C67.9773 394.074 56.7998 382.897 43.0116 382.897C29.2234 382.897 18.0459 394.074 18.0459 407.863C18.0459 421.651 29.2234 432.828 43.0116 432.828C56.7998 432.828 67.9773 421.651 67.9773 407.863ZM36.2696 407.863C36.2696 404.137 39.2857 401.121 43.0116 401.121C46.7374 401.121 49.7536 404.137 49.7536 407.863C49.7536 411.588 46.7374 414.605 43.0116 414.605C39.2857 414.605 36.2696 411.588 36.2696 407.863Z" fill="#F5F3CB"/>
<path d="M65.1384 213.282C65.1384 201.04 55.2282 191.13 42.9861 191.13C30.744 191.13 20.8338 201.04 20.8338 213.282C20.8338 225.524 30.744 235.434 42.9861 235.434C55.2282 235.434 65.1384 225.524 65.1384 213.282ZM32.4422 213.282C32.4422 207.452 37.1819 202.713 43.0115 202.713C48.841 202.713 53.5807 207.452 53.5807 213.282C53.5807 219.112 48.841 223.851 43.0115 223.851C37.1819 223.851 32.4422 219.112 32.4422 213.282Z" fill="#E1D4D7"/>
</svg>
