<svg width="6759" height="3655" viewBox="0 0 6759 3655" fill="none" xmlns="http://www.w3.org/2000/svg">
<g clip-path="url(#clip0_128_21)">
<path d="M-1183.42 654.877L1077.54 -403.625C676.138 -296.241 303.406 -167.763 -33.8269 -22.0274L-368.326 134.575C-679.618 292.455 -954.046 466.955 -1183.42 654.877Z" fill="#DFD1D4"/>
<path d="M-1857.87 1496.05L2874.31 -719.386C2743.24 -707.242 2614.9 -692.54 2486.56 -676.56L-1766.39 1314.52C-1800.53 1374.61 -1831.93 1434.69 -1857.87 1496.05Z" fill="#DFD1D4"/>
<path d="M-1978 2059.18C-1978 2064.94 -1978 2071.33 -1978 2077.08L4115.4 -774.996C4103.11 -774.996 4089.46 -774.996 4077.17 -774.996C3988.42 -774.996 3901.04 -773.718 3815.03 -772.44L-1971.18 1936.46C-1975.27 1977.37 -1978 2018.27 -1978 2059.18Z" fill="#DFD1D4"/>
<path d="M-1883.8 2559.03L5143.47 -730.891C5058.82 -737.922 4972.81 -744.314 4888.16 -749.428L-1923.39 2439.5C-1912.47 2479.13 -1898.81 2519.4 -1883.8 2559.03Z" fill="#DFD1D4"/>
<path d="M-1654.4 2976.42L6035.05 -623.509C5961.32 -635.654 5886.23 -646.52 5811.13 -656.747L-1725.4 2871.59C-1702.19 2906.75 -1678.98 2941.91 -1654.4 2976.42Z" fill="#DFD1D4"/>
<path d="M-1319.92 3345.24L6824.17 -467.547C6758.64 -482.887 6691.74 -498.228 6624.83 -512.929L-1416.86 3251.91C-1385.46 3283.23 -1354.06 3314.55 -1319.92 3345.24Z" fill="#DFD1D4"/>
<path d="M-899.426 3673.78L7525.92 -270.673C7467.21 -289.848 7408.51 -308.385 7348.43 -326.282L-1018.21 3590.69C-979.979 3618.81 -940.386 3646.3 -899.426 3673.78Z" fill="#DFD1D4"/>
<path d="M-402.464 3966.53L8149.86 -37.3665C8097.98 -59.0991 8046.1 -80.8316 7992.85 -101.925L-540.362 3893.03C-495.307 3917.32 -448.885 3942.25 -402.464 3966.53Z" fill="#DFD1D4"/>
<path d="M169.616 4224.13L8701.47 229.814C8656.41 204.886 8609.99 179.957 8563.57 155.668L11.2432 4159.57C63.1251 4181.3 115.003 4203.03 169.616 4224.13Z" fill="#DFD1D4"/>
<path d="M814.046 4447.21L9177.96 531.513C9139.73 503.389 9100.14 475.904 9059.18 448.418L636.557 4392.24C695.265 4410.77 753.972 4429.31 814.046 4447.21Z" fill="#DFD1D4"/>
<path d="M1539.04 4633.21L9573.92 871.562C9542.52 840.241 9511.11 808.92 9476.98 778.239L1338.35 4588.47C1405.25 4603.81 1472.14 4618.51 1539.04 4633.21Z" fill="#DFD1D4"/>
<path d="M2354.13 4777.03L9882.47 1252.52C9860.63 1217.37 9836.05 1182.21 9811.48 1147.7L2130.22 4743.79C2203.95 4755.94 2279.04 4766.8 2354.13 4777.03Z" fill="#DFD1D4"/>
<path d="M3279.82 4869.07L10079.1 1685.89C10068.2 1645.62 10054.5 1605.36 10039.5 1565.73L3023.14 4850.54C3107.79 4857.57 3193.8 4863.96 3279.82 4869.07Z" fill="#DFD1D4"/>
<path d="M4077.2 4894C4171.41 4894 4264.24 4892.72 4355.72 4890.8L10124.2 2190.22C10128.3 2146.75 10131 2103.29 10131 2059.82C10131 2055.99 10131 2052.79 10131 2048.95L4053.99 4894C4060.81 4893.36 4069.01 4894 4077.2 4894Z" fill="#DFD1D4"/>
<path d="M5688.21 4791.73L9913.86 2813.43C9949.36 2753.34 9980.76 2692.62 10008.1 2631.26L5299.09 4835.83C5430.16 4823.05 5559.87 4808.35 5688.21 4791.73Z" fill="#DFD1D4"/>
</g>
<defs>
<clipPath id="clip0_128_21">
<rect width="6759" height="3655" fill="white"/>
</clipPath>
</defs>
</svg>
